<svg width="512" height="512" xmlns="http://www.w3.org/2000/svg" xmlns:xlink="http://www.w3.org/1999/xlink" preserveAspectRatio="xMinYMin meet">
 <g>
  <title>Layer 1</title>
  <path id="svg_1" d="m256,0c-141.390999,0 -256,114.609001 -256,256s114.609001,256 256,256s256,-114.609009 256,-256s-114.609009,-256 -256,-256zm0,472c-119.296997,0 -216,-96.703003 -216,-216s96.703003,-216 216,-216s216,96.703003 216,216s-96.703003,216 -216,216z"/>
  <use x="-130.512963" y="164.308469" transform="matrix(0.6382720990534199,0,0,0.6460988196582478,179.29153459320898,-12.00796014783501) " id="svg_6" xlink:href="#svg_5"/>
 </g>
 <defs>
  <svg id="svg_5" height="504" width="504">
   <g id="layer1" transform="translate(-319.91772,-446.85651)">
    <path fill="#000000" id="path2396" transform="translate(319.91772,446.85651)" d="m186.000015,482.899231c-29.179001,-1.529266 -57.0345,-8.498474 -78.345718,-19.601349c-10.414993,-5.426086 -13.654289,-8.38739 -13.654289,-12.482452c0.000015,-1.381134 4.271439,-12.317932 9.492104,-24.304016l9.492096,-21.792908l-8.923485,-20.48288l-8.923492,-20.48291l-18.238777,-22.328217c-10.031334,-12.280518 -18.697102,-22.926636 -19.257282,-23.65802c-0.560169,-0.731384 -5.774769,-39.344666 -11.58799,-85.807312l-10.5695,-84.477509l-6.612391,-2.225266c-8.079929,-2.719147 -13.14943,-6.455338 -17.01668,-12.541229c-6.82615,-10.742317 -7.47985,-22.343964 -1.89785,-33.682617c5.71579,-11.610405 16.183609,-17.818985 30.043251,-17.818985c13.859638,-0.000015 24.327457,6.20858 30.043247,17.818985c6.624649,13.456581 4.668121,25.6446 -6.43301,40.073898c-0.577419,0.750519 9.249104,21.998138 27.992062,60.526489l28.881821,59.369965l4.191162,-72.953308c2.305138,-40.124329 4.221222,-74.40667 4.257935,-76.182999c0.05687,-2.750214 -0.489929,-3.51664 -3.68322,-5.162704c-6.732414,-3.470367 -12.026794,-8.908798 -15.458,-15.878571c-8.403587,-17.070084 -1.021149,-36.417278 17.208,-45.097107c11.279823,-5.370892 25.128044,-2.933289 35.708,6.285419c2.493683,2.17284 5.549149,6.390839 7.5,10.353592c2.840591,5.770046 3.292007,7.721188 3.292007,14.229046c-0.000015,6.507866 -0.451416,8.459 -3.292007,14.22905c-1.934448,3.929436 -4.956711,8.111946 -7.328873,10.142426l-4.03688,3.455406l24.828888,72.071083c13.655884,39.639084 25.073914,72.078033 25.373398,72.086548c0.299484,0.008514 6.853363,-36.315994 14.564163,-80.721161l14.019638,-80.736649l-4.29248,-2.843224c-9.565643,-6.336014 -14.819214,-16.150894 -14.829285,-27.704506c-0.011749,-13.444931 7.411072,-24.617851 20.493439,-30.847031c7.78595,-3.707291 18.214035,-3.707291 25.999985,0c8.150848,3.881029 13.449585,9.004559 17.208008,16.639011c2.841461,5.77179 3.291107,7.716339 3.285431,14.208019c-0.01004,11.553612 -5.263641,21.368492 -14.829285,27.704506l-4.29248,2.843224l14.019623,80.736649c7.710815,44.405167 14.264679,80.729675 14.564178,80.721161c0.2995,-0.008514 11.717529,-32.447464 25.373413,-72.086548l24.828857,-72.071083l-4.036865,-3.455406c-2.372162,-2.030479 -5.394409,-6.21299 -7.328857,-10.142426c-8.403625,-17.070084 -1.021149,-36.417278 17.207977,-45.097107c7.78598,-3.707291 18.21405,-3.707291 26,0c8.150848,3.881031 13.449585,9.004559 17.208008,16.639011c2.840607,5.770046 3.291992,7.721188 3.291992,14.229046c0.000031,6.507866 -0.451385,8.459 -3.291992,14.22905c-3.431183,6.969772 -8.725586,12.408203 -15.458008,15.878571c-3.193268,1.646065 -3.740082,2.412491 -3.683197,5.162704c0.036682,1.776329 1.952789,36.05867 4.257935,76.182999l4.191162,72.953308l28.881805,-59.369965c18.74295,-38.528351 28.569489,-59.77597 27.992065,-60.526489c-11.101135,-14.429298 -13.057648,-26.617317 -6.433014,-40.073898c5.71579,-11.610405 16.183624,-17.818985 30.043243,-17.818985c13.85965,-0.000015 24.327484,6.20858 30.043274,17.818985c5.58197,11.338654 4.928284,22.9403 -1.897858,33.682617c-3.867279,6.085892 -8.936768,9.822083 -17.016693,12.541229l-6.612396,2.225266l-10.569489,84.477509c-5.813232,46.462646 -11.027832,85.075928 -11.587982,85.807312c-0.560211,0.731384 -9.225952,11.377502 -19.257294,23.65802l-18.23877,22.328217l-8.923492,20.48291l-8.923492,20.48288l9.492096,21.792908c5.220673,11.986084 9.492096,22.922882 9.492096,24.304016c0.000031,4.095062 -3.239288,7.056366 -13.654266,12.482452c-16.514191,8.603699 -36.605743,14.694885 -59.288361,17.974609c-8.516418,1.231384 -23.606262,1.564056 -78.057373,1.720734c-37.124985,0.106873 -69.974991,0.064545 -72.999985,-0.093994l0,0z"/>
    <path fill="#ffffff" id="path2411" transform="translate(319.91772,446.85651)" d="m260.078339,68.322472c5.18277,-3.492668 7.921661,-8.238472 7.921661,-13.7262c0.000031,-12.20673 -14.265549,-20.33902 -24.078308,-13.7262c-5.182785,3.492668 -7.921677,8.238468 -7.921677,13.7262c-0.000015,12.20673 14.265549,20.339016 24.078323,13.7262l0,0z"/>
    <path fill="#ffffff" id="path2409" transform="translate(319.91772,446.85651)" d="m372.078339,88.322472c5.18277,-3.492668 7.921661,-8.238472 7.921661,-13.726204c0.000031,-5.487724 -2.738892,-10.233528 -7.921661,-13.726196c-9.812775,-6.61282 -24.078339,1.51947 -24.078339,13.726196c0.000031,12.206734 14.265564,20.33902 24.078339,13.726204l0,0z"/>
    <path fill="#ffffff" id="path2407" transform="translate(319.91772,446.85651)" d="m148.078323,88.322472c10.639999,-7.170288 10.639999,-20.282112 0,-27.4524c-9.812744,-6.61282 -24.078316,1.51947 -24.078316,13.726196c0,12.206734 14.265556,20.33902 24.078316,13.726204l0,0z"/>
    <path fill="#ffffff" id="path2405" transform="translate(319.91772,446.85651)" d="m471.980072,127.844719c5.175079,-2.60006 8.019928,-7.476936 8.019928,-13.748451c0.000031,-9.227135 -6.473297,-15.496887 -16,-15.496887c-9.526672,0 -16,6.269753 -16,15.496887c0.000031,9.227142 6.473297,15.496887 16,15.496887c2.475006,0.000015 6.06604,-0.786789 7.980072,-1.748436l0,0z"/>
    <path fill="#ffffff" id="path2403" transform="translate(319.91772,446.85651)" d="m47.98008,127.844719c10.821312,-5.436821 10.821312,-22.060081 0,-27.496902c-4.451881,-2.236694 -11.508259,-2.236694 -15.96014,0c-10.82131,5.436821 -10.82131,22.060081 0,27.496902c1.91404,0.961647 5.50507,1.748436 7.980072,1.748436c2.474998,0.000015 6.066029,-0.786789 7.980068,-1.748436z"/>
    <path fill="#ffffff" id="path2401" transform="translate(319.91772,446.85651)" d="m230.916962,268.005524c3.620682,-1.974915 8.608047,-5.277283 11.083054,-7.338623c8.96579,-7.467255 11.33374,-7.558105 19.134628,-0.73407c4.449615,3.892395 18.591492,12.333405 19.296356,11.517609c0.472015,-0.546234 -27.863541,-162.84642 -28.430984,-162.846977c-0.275009,-0.000275 -6.75351,36.110497 -14.396683,80.246162c-7.643143,44.135651 -14.103806,80.809158 -14.356979,81.496658c-0.709564,1.926819 0.553116,1.541504 7.670609,-2.340759l0,0z"/>
    <path fill="#ffffff" id="path2399" transform="translate(319.91772,446.85651)" d="m366.528656,274.846283c-0.325867,-3.712524 -2.377136,-38.925018 -4.558411,-78.250015c-2.181244,-39.324997 -4.079376,-72.68895 -4.218079,-74.142097c-0.146271,-1.532578 -11.339111,29.542763 -26.653595,73.999992c-14.520813,42.153168 -26.633942,77.276245 -26.918091,78.051331c-0.859802,2.345245 12.983063,0.497742 22.791718,-3.04184c12.509125,-4.514069 14.337646,-4.633636 18.782562,-1.228027c3.711914,2.844025 19.007355,11.275665 20.555786,11.331451c0.445831,0.016052 0.543976,-3.008301 0.218109,-6.720795l0,0z"/>
    <path fill="#ffffff" id="path2397" transform="translate(319.91772,446.85651)" d="m145.274963,277.9758c3.97377,-1.991241 9.375366,-5.188965 12.00354,-7.106079c5.608261,-4.090881 6.872421,-4.052856 19.749313,0.593933c9.80864,3.539551 23.65152,5.387085 22.791733,3.04184c-0.284149,-0.775085 -12.397293,-35.898178 -26.918091,-78.051331c-15.314499,-44.45723 -26.507339,-75.53257 -26.65361,-73.999992c-0.138687,1.453148 -2.036835,34.817101 -4.218094,74.142097c-2.181244,39.324997 -4.232529,74.537491 -4.55838,78.250015c-0.325867,3.712463 -0.328979,6.75 -0.006958,6.75c0.322037,-0.000031 3.836777,-1.629211 7.810547,-3.620483l0,0z"/>
    <path fill="#ffffff" id="path2394" transform="translate(319.91772,446.85651)" d="m439.937408,232.096863c4.40033,-35.142746 7.868835,-64.027679 7.707794,-64.188736c-0.251923,-0.251923 -55.915863,113.730179 -57.430511,117.599503c-0.466309,1.191132 1.073029,1.284271 9.866425,0.596954c17.730988,-1.385986 16.729919,-1.578552 24.470337,4.707306c3.814117,3.097321 7.036133,5.530151 7.160065,5.406219c0.123901,-0.123932 3.825592,-28.978485 8.225891,-64.121246l0,0z"/>
    <path fill="#ffffff" id="path2392" transform="translate(319.91772,446.85651)" d="m86.550072,285.77475c1.986069,-1.041229 3.985527,-1.094269 9.42688,-0.25c9.70507,1.505768 18.373245,1.41861 17.746475,-0.178467c-1.488327,-3.792419 -57.123966,-117.6828 -57.368687,-117.43808c-0.161098,0.161118 3.28775,28.84433 7.664097,63.740494c4.376366,34.896164 7.962456,63.814926 7.969093,64.263931c0.006653,0.448975 2.718681,-1.351013 6.026749,-4c3.30806,-2.649017 7.148994,-5.411041 8.535393,-6.137878l0,0z"/>
    <path fill="#ffffff" id="path2390" transform="translate(319.91772,446.85651)" d="m113.07486,346.04248c90.159012,-31.008972 187.695435,-31.006775 277.868835,0.006317c4.094055,1.40802 7.764679,2.219757 8.156982,1.803772c2.4263,-2.572632 26.85022,-32.847992 26.828735,-33.256287c-0.014496,-0.275024 -3.226166,-3.008148 -7.137115,-6.073639l-7.110779,-5.573639l-5.590759,0.918854c-17.341278,2.850159 -42.846924,-2.750092 -61.382202,-13.4776l-6.791443,-3.930634l-7.708557,2.529999c-25.17215,8.261688 -50.438599,4.757111 -72.958557,-10.119659l-5.249985,-3.46817l-5.25,3.46817c-12.752762,8.42453 -27.442032,13.427185 -42.299164,14.405609c-10.355118,0.681976 -19.357056,-0.576447 -30.659393,-4.28595l-7.708542,-2.529999l-6.791458,3.930634c-18.535263,10.727509 -44.040916,16.327759 -61.38221,13.4776l-5.590752,-0.918854l-7.107025,5.573639c-3.908859,3.065491 -7.018021,5.891907 -6.909241,6.280884c0.170578,0.610046 26.908218,33.792755 27.229172,33.792755c0.065071,-0.000031 3.459618,-1.1492 7.543457,-2.553802l0,0z"/>
    <path fill="#ffffff" id="path2388" transform="translate(319.91772,446.85651)" d="m151.199493,384.758209c66.180954,-21.421387 135.420074,-21.421387 201.601044,0c8.415283,2.723816 17.266724,5.795258 19.66983,6.825348c3.166046,1.357117 4.506592,1.547913 4.867828,0.69281c0.2742,-0.649048 3.176971,-7.309998 6.450653,-14.802063l5.952118,-13.621979l-3.620483,-1.158051c-66.974152,-21.422394 -125.780243,-26.95517 -191.620468,-18.028656c-24.827789,3.36615 -47.342682,8.663849 -76.620483,18.028656l-3.620483,1.158051l5.952118,13.621979c3.273674,7.492065 6.17646,14.153015 6.450653,14.802063c0.361229,0.855103 1.701797,0.664307 4.867828,-0.69281c2.403122,-1.03009 11.254547,-4.101501 19.669846,-6.825348l0,0z"/>
    <path fill="#ffffff" id="path2386" transform="translate(319.91772,446.85651)" d="m151.500015,426.082733c19.551041,-4.82782 40.858795,-8.576141 60.5,-10.642792c16.28595,-1.713654 63.714035,-1.713623 79.999985,0c27.319519,2.874542 65.824341,10.760712 85.75,17.562378c3.987518,1.361145 7.25,2.293274 7.25,2.071381c0.000031,-0.221863 -2.191376,-5.482544 -4.86972,-11.690399c-5.794952,-13.431396 -4.866608,-12.781952 -30.354797,-21.23584c-17.344513,-5.752777 -37.265808,-10.234924 -58.775482,-13.223999c-17.526031,-2.435516 -60.473923,-2.435516 -77.999985,0c-21.509659,2.989075 -41.430969,7.471222 -58.775482,13.223999c-25.48819,8.453888 -24.55986,7.804443 -30.354782,21.23584c-2.67836,6.207825 -4.869743,11.468536 -4.869743,11.690399c0,0.221893 3.262505,-0.710236 7.25,-2.071381c3.987495,-1.361145 15.349998,-4.474976 25.250008,-6.919586l0,0z"/>
    <path fill="#ffffff" id="path2384" transform="translate(319.91772,446.85651)" d="m337,463.278748c13.855286,-2.006012 22.504395,-4.022522 33.865112,-7.895508l9.365112,-3.192657l-6.865112,-2.326019c-11.194611,-3.792969 -37.781982,-10.044342 -53.865112,-12.6651c-24.901489,-4.057739 -38.429352,-5.074799 -67.499985,-5.074799c-29.070648,0.000031 -42.59848,1.017059 -67.5,5.074799c-16.083145,2.620728 -42.670502,8.872131 -53.865112,12.6651l-6.865089,2.326019l9.365089,3.209778c15.147598,5.191681 33.45813,8.48175 52.865112,9.498871c3.024979,0.158569 35.875,0.200867 72.999985,0.093994c54.333954,-0.156342 69.548065,-0.490753 78,-1.714478l0,0z"/>
   </g>
  </svg>
 </defs>
</svg>